<mxfile host="app.diagrams.net" modified="2024-02-05T14:56:30.038Z" agent="Mozilla/5.0 (Windows NT 10.0; Win64; x64) AppleWebKit/537.36 (KHTML, like Gecko) Chrome/120.0.0.0 YaBrowser/24.1.0.0 Safari/537.36" etag="9zmmj4Cpa0uoXOYyIOdT" version="23.0.2" type="device">
  <diagram name="Страница — 1" id="w7injDPHYg48146lP7M6">
    <mxGraphModel dx="980" dy="531" grid="1" gridSize="10" guides="1" tooltips="1" connect="1" arrows="1" fold="1" page="1" pageScale="1" pageWidth="827" pageHeight="1169" math="0" shadow="0">
      <root>
        <mxCell id="0" />
        <mxCell id="1" parent="0" />
        <mxCell id="jt6bjv7asWVGR9pXcY7B-1" value="Авторизированный&lt;br&gt;пользователь" style="shape=umlActor;verticalLabelPosition=bottom;verticalAlign=top;html=1;" parent="1" vertex="1">
          <mxGeometry x="110" y="195" width="30" height="60" as="geometry" />
        </mxCell>
        <mxCell id="jt6bjv7asWVGR9pXcY7B-2" value="2. Вход в систему" style="ellipse;whiteSpace=wrap;html=1;" parent="1" vertex="1">
          <mxGeometry x="70" y="60" width="140" height="70" as="geometry" />
        </mxCell>
        <mxCell id="jt6bjv7asWVGR9pXcY7B-3" value="3. Выход из системы" style="ellipse;whiteSpace=wrap;html=1;" parent="1" vertex="1">
          <mxGeometry x="220" y="60" width="140" height="70" as="geometry" />
        </mxCell>
        <mxCell id="jt6bjv7asWVGR9pXcY7B-4" value="8. Пройти тест" style="ellipse;whiteSpace=wrap;html=1;" parent="1" vertex="1">
          <mxGeometry x="70" y="360" width="140" height="70" as="geometry" />
        </mxCell>
        <mxCell id="jt6bjv7asWVGR9pXcY7B-5" value="1. Регистрация" style="ellipse;whiteSpace=wrap;html=1;" parent="1" vertex="1">
          <mxGeometry x="460" y="80" width="140" height="70" as="geometry" />
        </mxCell>
        <mxCell id="jt6bjv7asWVGR9pXcY7B-6" value="4. Просмотр каталога&lt;br&gt;&amp;nbsp;групп" style="ellipse;whiteSpace=wrap;html=1;" parent="1" vertex="1">
          <mxGeometry x="295" y="150" width="140" height="70" as="geometry" />
        </mxCell>
        <mxCell id="jt6bjv7asWVGR9pXcY7B-10" value="Гость" style="shape=umlActor;verticalLabelPosition=bottom;verticalAlign=top;html=1;" parent="1" vertex="1">
          <mxGeometry x="680" y="195" width="30" height="60" as="geometry" />
        </mxCell>
        <mxCell id="jt6bjv7asWVGR9pXcY7B-16" value="" style="endArrow=none;endFill=0;endSize=12;html=1;rounded=0;entryX=0.5;entryY=1;entryDx=0;entryDy=0;" parent="1" target="jt6bjv7asWVGR9pXcY7B-2" edge="1">
          <mxGeometry width="160" relative="1" as="geometry">
            <mxPoint x="130" y="190" as="sourcePoint" />
            <mxPoint x="300" y="220" as="targetPoint" />
          </mxGeometry>
        </mxCell>
        <mxCell id="jt6bjv7asWVGR9pXcY7B-17" value="" style="endArrow=none;endFill=0;endSize=12;html=1;rounded=0;entryX=0.229;entryY=0.951;entryDx=0;entryDy=0;entryPerimeter=0;" parent="1" target="jt6bjv7asWVGR9pXcY7B-3" edge="1">
          <mxGeometry width="160" relative="1" as="geometry">
            <mxPoint x="140" y="230" as="sourcePoint" />
            <mxPoint x="230" y="117" as="targetPoint" />
          </mxGeometry>
        </mxCell>
        <mxCell id="jt6bjv7asWVGR9pXcY7B-18" value="" style="endArrow=none;endFill=0;endSize=12;html=1;rounded=0;entryX=0.02;entryY=0.409;entryDx=0;entryDy=0;entryPerimeter=0;" parent="1" target="jt6bjv7asWVGR9pXcY7B-6" edge="1">
          <mxGeometry width="160" relative="1" as="geometry">
            <mxPoint x="140" y="240" as="sourcePoint" />
            <mxPoint x="237" y="197" as="targetPoint" />
          </mxGeometry>
        </mxCell>
        <mxCell id="jt6bjv7asWVGR9pXcY7B-19" value="" style="endArrow=none;endFill=0;endSize=12;html=1;rounded=0;entryX=0.954;entryY=0.78;entryDx=0;entryDy=0;entryPerimeter=0;" parent="1" source="jt6bjv7asWVGR9pXcY7B-10" target="jt6bjv7asWVGR9pXcY7B-5" edge="1">
          <mxGeometry width="160" relative="1" as="geometry">
            <mxPoint x="330" y="280" as="sourcePoint" />
            <mxPoint x="490" y="280" as="targetPoint" />
          </mxGeometry>
        </mxCell>
        <mxCell id="jt6bjv7asWVGR9pXcY7B-20" value="" style="endArrow=none;endFill=0;endSize=12;html=1;rounded=0;entryX=1;entryY=0.5;entryDx=0;entryDy=0;" parent="1" target="jt6bjv7asWVGR9pXcY7B-6" edge="1">
          <mxGeometry width="160" relative="1" as="geometry">
            <mxPoint x="680" y="220" as="sourcePoint" />
            <mxPoint x="588" y="151" as="targetPoint" />
          </mxGeometry>
        </mxCell>
        <mxCell id="jt6bjv7asWVGR9pXcY7B-21" value="&lt;b&gt;&lt;font style=&quot;font-size: 18px;&quot;&gt;Диаграмма Use Case для приложения &quot;Еще не бабушка&quot;&lt;/font&gt;&lt;/b&gt;" style="text;html=1;align=center;verticalAlign=middle;resizable=0;points=[];autosize=1;strokeColor=none;fillColor=none;" parent="1" vertex="1">
          <mxGeometry x="40" width="530" height="40" as="geometry" />
        </mxCell>
        <mxCell id="wQ_ZRCEykFptOy4qQa8p-3" value="5. Поиск по каталогу&lt;br&gt;групп" style="ellipse;whiteSpace=wrap;html=1;" parent="1" vertex="1">
          <mxGeometry x="490" y="280" width="140" height="70" as="geometry" />
        </mxCell>
        <mxCell id="wQ_ZRCEykFptOy4qQa8p-12" value="include" style="endArrow=open;endSize=12;dashed=1;html=1;rounded=0;exitX=0.5;exitY=0;exitDx=0;exitDy=0;entryX=0.5;entryY=1;entryDx=0;entryDy=0;" parent="1" source="3kPtaRYk3ld_0b2epU-p-1" edge="1">
          <mxGeometry width="160" relative="1" as="geometry">
            <mxPoint x="520" y="390" as="sourcePoint" />
            <mxPoint x="290" y="325" as="targetPoint" />
          </mxGeometry>
        </mxCell>
        <mxCell id="wQ_ZRCEykFptOy4qQa8p-13" value="extend" style="endArrow=open;endSize=12;dashed=1;html=1;rounded=0;exitX=0.417;exitY=-0.009;exitDx=0;exitDy=0;exitPerimeter=0;entryX=1;entryY=1;entryDx=0;entryDy=0;" parent="1" source="wQ_ZRCEykFptOy4qQa8p-3" target="jt6bjv7asWVGR9pXcY7B-6" edge="1">
          <mxGeometry width="160" relative="1" as="geometry">
            <mxPoint x="330" y="280" as="sourcePoint" />
            <mxPoint x="490" y="280" as="targetPoint" />
          </mxGeometry>
        </mxCell>
        <mxCell id="wQ_ZRCEykFptOy4qQa8p-18" value="" style="html=1;verticalAlign=bottom;endArrow=none;curved=0;rounded=0;entryX=0.5;entryY=0;entryDx=0;entryDy=0;endFill=0;" parent="1" target="jt6bjv7asWVGR9pXcY7B-4" edge="1">
          <mxGeometry width="80" relative="1" as="geometry">
            <mxPoint x="120" y="300" as="sourcePoint" />
            <mxPoint x="450" y="280" as="targetPoint" />
          </mxGeometry>
        </mxCell>
        <mxCell id="wQ_ZRCEykFptOy4qQa8p-24" value="9. Получение рекомендаций" style="ellipse;whiteSpace=wrap;html=1;" parent="1" vertex="1">
          <mxGeometry x="70" y="470" width="140" height="70" as="geometry" />
        </mxCell>
        <mxCell id="wQ_ZRCEykFptOy4qQa8p-25" value="include" style="endArrow=open;endSize=12;dashed=1;html=1;rounded=0;exitX=0.5;exitY=0;exitDx=0;exitDy=0;entryX=0.5;entryY=1;entryDx=0;entryDy=0;" parent="1" source="wQ_ZRCEykFptOy4qQa8p-24" target="jt6bjv7asWVGR9pXcY7B-4" edge="1">
          <mxGeometry width="160" relative="1" as="geometry">
            <mxPoint x="330" y="280" as="sourcePoint" />
            <mxPoint x="490" y="280" as="targetPoint" />
          </mxGeometry>
        </mxCell>
        <mxCell id="3kPtaRYk3ld_0b2epU-p-1" value="6. Фильтрация групп" style="ellipse;whiteSpace=wrap;html=1;" parent="1" vertex="1">
          <mxGeometry x="220" y="290" width="140" height="70" as="geometry" />
        </mxCell>
        <mxCell id="3kPtaRYk3ld_0b2epU-p-9" value="7. Запись в группу" style="ellipse;whiteSpace=wrap;html=1;" parent="1" vertex="1">
          <mxGeometry x="350" y="460" width="140" height="70" as="geometry" />
        </mxCell>
        <mxCell id="3kPtaRYk3ld_0b2epU-p-10" value="include" style="endArrow=open;endSize=12;dashed=1;html=1;rounded=0;exitX=0.003;exitY=0.631;exitDx=0;exitDy=0;entryX=0.977;entryY=0.697;entryDx=0;entryDy=0;entryPerimeter=0;exitPerimeter=0;" parent="1" source="3kPtaRYk3ld_0b2epU-p-9" target="wQ_ZRCEykFptOy4qQa8p-24" edge="1">
          <mxGeometry x="-0.1592" width="160" relative="1" as="geometry">
            <mxPoint x="530" y="400" as="sourcePoint" />
            <mxPoint x="300" y="335" as="targetPoint" />
            <mxPoint as="offset" />
          </mxGeometry>
        </mxCell>
        <mxCell id="3kPtaRYk3ld_0b2epU-p-11" value="include" style="endArrow=open;endSize=12;dashed=1;html=1;rounded=0;exitX=1;exitY=0;exitDx=0;exitDy=0;entryX=0.386;entryY=1.031;entryDx=0;entryDy=0;entryPerimeter=0;" parent="1" source="3kPtaRYk3ld_0b2epU-p-9" target="wQ_ZRCEykFptOy4qQa8p-3" edge="1">
          <mxGeometry width="160" relative="1" as="geometry">
            <mxPoint x="305" y="535" as="sourcePoint" />
            <mxPoint x="520" y="460" as="targetPoint" />
          </mxGeometry>
        </mxCell>
        <mxCell id="zjHjxsWGStE9h52ZCApW-2" value="include" style="endArrow=open;endSize=12;dashed=1;html=1;rounded=0;entryX=0.567;entryY=1.014;entryDx=0;entryDy=0;entryPerimeter=0;exitX=0.357;exitY=0;exitDx=0;exitDy=0;exitPerimeter=0;" edge="1" parent="1" source="3kPtaRYk3ld_0b2epU-p-9" target="jt6bjv7asWVGR9pXcY7B-6">
          <mxGeometry width="160" relative="1" as="geometry">
            <mxPoint x="419" y="330" as="sourcePoint" />
            <mxPoint x="558" y="321" as="targetPoint" />
          </mxGeometry>
        </mxCell>
        <mxCell id="zjHjxsWGStE9h52ZCApW-5" value="extend" style="endArrow=open;endSize=12;dashed=1;html=1;rounded=0;exitX=0.6;exitY=-0.003;exitDx=0;exitDy=0;exitPerimeter=0;entryX=0.253;entryY=1.003;entryDx=0;entryDy=0;entryPerimeter=0;" edge="1" parent="1" source="3kPtaRYk3ld_0b2epU-p-1" target="jt6bjv7asWVGR9pXcY7B-6">
          <mxGeometry width="160" relative="1" as="geometry">
            <mxPoint x="558" y="289" as="sourcePoint" />
            <mxPoint x="424" y="220" as="targetPoint" />
          </mxGeometry>
        </mxCell>
        <mxCell id="zjHjxsWGStE9h52ZCApW-6" value="extend" style="endArrow=open;endSize=12;dashed=1;html=1;rounded=0;exitX=0.929;exitY=0.191;exitDx=0;exitDy=0;exitPerimeter=0;entryX=0.354;entryY=1.014;entryDx=0;entryDy=0;entryPerimeter=0;" edge="1" parent="1" source="wQ_ZRCEykFptOy4qQa8p-24" target="3kPtaRYk3ld_0b2epU-p-1">
          <mxGeometry width="160" relative="1" as="geometry">
            <mxPoint x="314" y="300" as="sourcePoint" />
            <mxPoint x="340" y="230" as="targetPoint" />
          </mxGeometry>
        </mxCell>
        <mxCell id="zjHjxsWGStE9h52ZCApW-7" value="extend" style="endArrow=open;endSize=12;dashed=1;html=1;rounded=0;exitX=0;exitY=0.5;exitDx=0;exitDy=0;entryX=1;entryY=0.5;entryDx=0;entryDy=0;" edge="1" parent="1" source="wQ_ZRCEykFptOy4qQa8p-3" target="3kPtaRYk3ld_0b2epU-p-1">
          <mxGeometry width="160" relative="1" as="geometry">
            <mxPoint x="210" y="493" as="sourcePoint" />
            <mxPoint x="280" y="371" as="targetPoint" />
          </mxGeometry>
        </mxCell>
        <mxCell id="zjHjxsWGStE9h52ZCApW-8" value="include" style="endArrow=open;endSize=12;dashed=1;html=1;rounded=0;exitX=0;exitY=0;exitDx=0;exitDy=0;entryX=0.783;entryY=0.889;entryDx=0;entryDy=0;entryPerimeter=0;" edge="1" parent="1" source="3kPtaRYk3ld_0b2epU-p-9" target="3kPtaRYk3ld_0b2epU-p-1">
          <mxGeometry x="-0.1592" width="160" relative="1" as="geometry">
            <mxPoint x="360" y="514" as="sourcePoint" />
            <mxPoint x="217" y="529" as="targetPoint" />
            <mxPoint as="offset" />
          </mxGeometry>
        </mxCell>
      </root>
    </mxGraphModel>
  </diagram>
</mxfile>
